# xmcd
#
# Track frame offsets:
#	150
#	17156
#	39970
#	60859
#	80863
#	98544
#	117160
#	131973
#	152114
#	169484
#	191905
#	205249
#	222638
#	235199
#
# Disc length: 3366 seconds
#
# Revision: 9
# Processed by: cddbd v1.5.2PL0 Copyright (c) Steve Scherf et al.
# Submitted via: EZCDAudioConverter 8.0.2.1
#
DISCID=c70d240e
DTITLE=DI PAULLO and PAULINO - SÓ MODÃO AO VIVO [CD 270.134) CARAVELAS
DYEAR=2002
DGENRE=country
TTITLE0=AMOR DE PRIMAVERA (BY GILMAR SINISTRO)
TTITLE1=POUT-POURRI: TELEFONE MUDO - AINDA ONTEM CHOREI DE SAUDADE (BY GILMAR 
TTITLE1=SINISTRO)
TTITLE2=TÔ POR AI (BY GILMAR SINISTRO)
TTITLE3=POUT-POURRI: TEMPO AO TEMPO - A NOITE DO NOSSO AMOR (BY GILMAR SINISTR
TTITLE3=O)
TTITLE4=SONHEI COM VOCÊ (BY GILMAR SINISTRO)
TTITLE5=POUT-POURRI: PEDAÇO DE MINHA VIDA - 60 DIAS APAIXONADO (BY GILMAR SINI
TTITLE5=STRO)
TTITLE6=SÓ FELICIDADE (BY GILMAR SINISTRO)
TTITLE7=POUT-POURRI: ILUSÃO PERDIDA - MULHER, SEMPRE MULHER (BY GILMAR SINISTR
TTITLE7=O)
TTITLE8=ONDE ANDA VOCÊ (BY GILMAR SINISTRO)
TTITLE9=POUT-POURRI: O BEIJO DO ADEUS - SUBLIME RENÚNCIA - ULTIMO ADEUS (BY GI
TTITLE9=LMAR SINISTRO)
TTITLE10=HOJE EU NÃO POSSO IR (BY GILMAR SINISTRO)
TTITLE11=POUT-POURRI: EU DISSE NÃO - ESTA NOITE COMO LEMBRANÇA (BY GILMAR SINI
TTITLE11=STRO)
TTITLE12=BARCO DE PAPEL (BY GILMAR SINISTRO)
TTITLE13=BOIADEIRO ERRANTE (BY GILMAR SINISTRO)
EXTD=
EXTT0=
EXTT1=
EXTT2=
EXTT3=
EXTT4=
EXTT5=
EXTT6=
EXTT7=
EXTT8=
EXTT9=
EXTT10=
EXTT11=
EXTT12=
EXTT13=
PLAYORDER=
